<?xml version="1.0" encoding="iso-8859-1"?>
<!-- Generator: Adobe Illustrator 19.0.0, SVG Export Plug-In . SVG Version: 6.00 Build 0)  -->
<svg version="1.1" id="Layer_1" xmlns="http://www.w3.org/2000/svg" xmlns:xlink="http://www.w3.org/1999/xlink" x="0px" y="0px"
	 viewBox="0 0 512 512" style="enable-background:new 0 0 512 512;" xml:space="preserve">
<g>
	<g>
		<path d="M508.975,477.23L394.48,248.244h-26.017h-26.017H169.524h-26.017h-26.019L2.457,478.305
			c-3.607,7.213-3.222,15.781,1.018,22.641c4.242,6.862,11.732,11.037,19.796,11.037h465.426c0.012,0,0.023,0,0.031,0
			c12.854,0,23.271-10.419,23.271-23.271C512,484.537,510.9,480.617,508.975,477.23z"/>
	</g>
</g>
<g>
	<g>
		<path d="M276.798,12.881c-3.941-7.884-11.999-12.864-20.814-12.864s-16.873,4.98-20.814,12.864l-94.41,188.82h26.017h26.019
			h126.377h26.017h26.017L276.798,12.881z"/>
	</g>
</g>
<g>
</g>
<g>
</g>
<g>
</g>
<g>
</g>
<g>
</g>
<g>
</g>
<g>
</g>
<g>
</g>
<g>
</g>
<g>
</g>
<g>
</g>
<g>
</g>
<g>
</g>
<g>
</g>
<g>
</g>
</svg>
